<svg xmlns:rdf="http://www.w3.org/1999/02/22-rdf-syntax-ns#" xmlns="http://www.w3.org/2000/svg" xmlns:cc="http://web.resource.org/cc/" xmlns:xlink="http://www.w3.org/1999/xlink" xmlns:dc="http://purl.org/dc/elements/1.1/" xmlns:svg="http://www.w3.org/2000/svg" id="svg1" height="120pt" width="120pt">
  <defs id="defs3">
    <linearGradient id="linearGradient835">
      <stop id="stop836" stop-color="#fff" stop-opacity=".5" offset="0"/>
      <stop id="stop837" stop-color="#fff" stop-opacity=".1" offset="1"/>
    </linearGradient>
    <linearGradient id="linearGradient838" y2=".65625" xlink:href="#linearGradient835" y1=".11719" x2=".9" x1=".2125"/>
    <linearGradient id="linearGradient840" y2="1.8056" xlink:href="#linearGradient835" y1=".13889" x2=".6087" x1=".065217"/>
    <linearGradient id="linearGradient842" y2="1.2931" xlink:href="#linearGradient835" y1=".077586" x2=".98551" x1=".1558"/>
  </defs>
  <path id="path825" stroke-linejoin="round" d="m38.153 33.449c2.352 1.227 22.369 5.488 33.972 5.227 16.528 0.261 30.315-6.05 32.925-7.056 0 1.434-2.3 10.273-2.61 15.68 0 5.447 1.83 28.414 2.09 33.71 0.87 6.179 2.7 13.862 4.44 19.08 1.83 3.55-23.561 9.85-34.754 10.45-12.602 0.78-38.937-4.37-37.369-8.36 0-3.971 3.658-13.385 3.658-19.602 0.523-6.025-0.261-23.272-0.261-30.836-0.261-6.779-1.054-12.56-2.091-18.293z" fill-rule="evenodd" stroke="#000" stroke-width="1pt" fill="#fbd900"/>
  <path id="path827" d="m36.324 103.22c-5.586-1.33-7.879 10.12-1.829 12.02 6.367 3.76 29.703 7.06 39.198 6.28 11.101-0.27 31.197-4.45 35.797-8.37 6.14-3.92 5.47-13.06 0-12.02-3.27 3.66-26.694 8.89-36.581 9.41-9.222 0.78-30.749-2.53-36.585-7.32z" fill-rule="evenodd" stroke="#000" stroke-width="1pt" fill="#fbf3bf"/>
  <path id="path828" stroke-linejoin="bevel" d="m103.07 42.609c1.25-3.211 9.64-6.971 12.37-7.515 4.68-1.051 12.38-1.388 16.76 4.28 7.94 10.323 6.76 28.625 2.86 34.638-2.77 5.103-9.37 10.281-14.63 11.877-5.16 1.534-12.71 2.661-14.34 3.712-0.35-1.297-1.32-7.388-1.38-9.071 1.95 0.128 7.49-0.893 11.7-1.868 3.9-0.899 6.45-3.275 9.33-6.223 5-4.7 4.35-21.159 0.54-25.056-2.23-2.263-6.85-3.905-9.91-3.323-5 1.031-13.68 7.365-13.68 6.979-0.51-2.079-0.25-6.159 0.38-8.43z" fill-rule="evenodd" stroke="#000" stroke-width="1.25" fill="#fbf3bf"/>
  <path id="path830" stroke-linejoin="round" d="m57.712 46.931c1.656 1.207-1.355 16.955-0.941 28.131 0.414 14.296 1.443 23.528-0.522 24.636-3.107 1.672-9.901-0.136-12.045-2.421-1.274-1.507 1.806-10.24 2.012-16.428-0.413-8.712-1.702-33.304-0.461-34.778 2.253-2.054 9.681-1.153 11.957 0.86z" fill-rule="evenodd" stroke="#000" stroke-width="1.25" fill="#fbe600"/>
  <path id="path832" d="m66.303 47.6c-1.479 1.425-0.064 19.625-0.064 22.559 0.306 3.809-1.101 27.453-0.177 28.955 1.848 2.126 10.216 2.446 13.001-0.357 1.505-1.874-0.478-22.544-0.478-27.679 0-5.511 1.407-22.052-0.441-23.58-2.032-2.15-8.439-3.18-11.841 0.102z" fill-rule="evenodd" stroke="#000" stroke-width="1pt" fill="#fbe600"/>
  <path id="path833" stroke-linejoin="round" d="m85.991 46.156c-1.658 1.256 1.18 15.8 1.194 26.982 0.138 14.3-1.244 24.662 0.824 25.709 3.268 1.583 10.881-1.541 13.001-3.891 1.25-1.544-1.412-10.178-2.082-16.357-0.984-8.164 0.147-33.129-1.19-34.564-2.401-1.984-9.481 0.04-11.747 2.121z" fill-rule="evenodd" stroke="#000" stroke-width="1.25" fill="#fbe600"/>
  <path id="path834" fill-rule="evenodd" fill="url(#linearGradient838)" d="m79.272 39.684c-4.989 1.109-36.587-3.141-39.728-4.804 0.924 4.619 3.141 45.272 1.663 49.891 0.185 2.033-3.881 15.153-3.696 17.929 17.185-68.375 39.729-48.972 41.761-63.016z"/>
  <path id="path839" fill-rule="evenodd" fill="url(#linearGradient840)" d="m35.717 103.87c-3.051-0.89-5.205 6.82-2.871 9.16 5.743 2.69 13.281-2.34 38.23-1.62-12.744-0.36-31.589-2.87-35.359-7.54z"/>
  <path id="path841" fill-rule="evenodd" fill="url(#linearGradient842)" d="m104.28 42.13c4.49-4.487 8.79-5.564 14-6.461 8.79-2.334 14.9 3.769 16.87 11.846-4.49-7.18-10.23-8.257-14.18-8.436-4.13 0.718-15.79 7.897-16.87 9.154-1.08 1.256-0.72-4.129 0.18-6.103z"/>
  <path id="path844" stroke-linejoin="round" d="m37.098 85.903c2.384 1.159 4.282-1.569 3.465-3.03 0.915 0.087 1.795-0.325 1.795-1.795 0.721-0.72-0.364-1.854-0.364-2.736-0.994-0.993 0.005-2.165 0.005-3.725 0-1.554 0.898-2.503 0.898-4.128 0-2.362 2.059-1.181 0.897-4.667 1.088-0.425 2.274-1.485 0.898-2.692 2.16-0.24 3.218-2.354 0.538-4.667 4.073 0-4.23-8.73 2.692-7 2.222-0.555 1.795-2.215 1.795-4.307 2.872 3.948 6.896 2.621 7.538 0 1.349 4.399 10.59 2.587 10.59-2.872 0.179 6.75 7.118 3.404 8.436 3.949-1.616 1.866 1.584 9.079 4.307 9.153-6.309 4.732-5.173 13.001 2.513 14.538 3.894 0 5.385-3.278 5.385-7.897 1.256 2.645 6.972 4.28 7-0.179 2.871 5.544 6.494-1.471 4.307-2.154 5.027 1.905 3.087-7.079 1.257-9.154 2.87-0.914 1.96-7.521 0.18-9.692 2.62 2.665 6.74-0.831 6.28-5.923 1.23 3.467 9.15-0.368 3.77-8.436 0-1.545-4.49-1.749-5.56-0.538-0.02-5.446-4.1-9.692-7.004-8.615 1.804-2.693-9.048-4.899-11.307-0.539 1.35-5.701-13.811-9.3331-14.179-6.102-1.749-2.513-11.771-2.559-14.718 6.282 0-4.861-16.309-7-15.974 0.359-3.49-2.434-9.228 0.359-8.795 3.23-5.385-2.703-7.842 9.561-3.41 10.231-2.513 2.262-2.692 11.311 0.538 11.128-1.974 2.13-0.897 8.436 1.257 8.615-1.68 2.321 0.245 13.674 7.179 11.846 0 2.524 0.709 4.694-0.179 7.359 0 1.545-0.898 2.853-0.898 4.487 0.372 0.744-1.26 2.724 0.539 3.949-4.217 1.759-3.303 4.464-1.671 5.722z" fill-rule="evenodd" stroke="#000" stroke-width="1pt" fill="#fff"/>
  <path id="path846" stroke-linejoin="round" d="m37.007 41.137c-1.509-1.649 1.222-7.039 4.243-6.762 0.689-2.474 2.586-2.893 4.688-2.187-1.048-2.045 1.503-3.992 3.75-1.682 1.517-2.622 4.677-4.645 6.356-3.232-0.132-3.373 6.063-6.793 8.331-3.836 0 0.606-0.363 1.874 0 1.874" stroke="#000" stroke-width="1pt" fill="none"/>
  <path id="path847" stroke-linejoin="round" d="m74.062 30.938c-0.103-4.721 14.01-8.591 11.25-0.313 1.27-0.635 6.876-1.299 5.845 2.313 4.123-0.465 10.393 1.105 6.662 6.689 2.391 1.805 1.33 6.695-0.319 5.061" stroke="#000" stroke-width="1pt" fill="none"/>
  <rdf:RDF xmlns="http://web.resource.org/cc/">
    <Work rdf:about="">
      <dc:title>Clipart by Nicu Buculei - beer</dc:title>
      <dc:rights>
        <Agent>
          <dc:title>Nicu Buculei</dc:title>
        </Agent>
      </dc:rights>
      <dc:type rdf:resource="http://purl.org/dc/dcmitype/StillImage"/>
      <license rdf:resource="http://web.resource.org/cc/PublicDomain"/>
    </Work>
    <License rdf:about="http://web.resource.org/cc/PublicDomain">
      <permits rdf:resource="http://web.resource.org/cc/Reproduction"/>
      <permits rdf:resource="http://web.resource.org/cc/Distribution"/>
      <permits rdf:resource="http://web.resource.org/cc/DerivativeWorks"/>
    </License>
  </rdf:RDF>
  <metadata>
    <rdf:RDF>
      <cc:Work>
        <dc:format>image/svg+xml</dc:format>
        <dc:type rdf:resource="http://purl.org/dc/dcmitype/StillImage"/>
        <cc:license rdf:resource="http://creativecommons.org/licenses/publicdomain/"/>
        <dc:publisher>
          <cc:Agent rdf:about="http://openclipart.org/">
            <dc:title>Openclipart</dc:title>
          </cc:Agent>
        </dc:publisher>
        <dc:title>Beer mug</dc:title>
        <dc:date>2008-02-25T14:24:55</dc:date>
        <dc:description>A mug full of cold beer</dc:description>
        <dc:source>http://openclipart.org/detail/14854/beer-mug-by-nicubunu</dc:source>
        <dc:creator>
          <cc:Agent>
            <dc:title>nicubunu</dc:title>
          </cc:Agent>
        </dc:creator>
        <dc:subject>
          <rdf:Bag>
            <rdf:li>alcohol</rdf:li>
            <rdf:li>beer</rdf:li>
            <rdf:li>beverage</rdf:li>
            <rdf:li>clip art</rdf:li>
            <rdf:li>clipart</rdf:li>
            <rdf:li>drink</rdf:li>
            <rdf:li>foam</rdf:li>
            <rdf:li>food</rdf:li>
            <rdf:li>image</rdf:li>
            <rdf:li>media</rdf:li>
            <rdf:li>mug</rdf:li>
            <rdf:li>party</rdf:li>
            <rdf:li>png</rdf:li>
            <rdf:li>public domain</rdf:li>
            <rdf:li>svg</rdf:li>
          </rdf:Bag>
        </dc:subject>
      </cc:Work>
      <cc:License rdf:about="http://creativecommons.org/licenses/publicdomain/">
        <cc:permits rdf:resource="http://creativecommons.org/ns#Reproduction"/>
        <cc:permits rdf:resource="http://creativecommons.org/ns#Distribution"/>
        <cc:permits rdf:resource="http://creativecommons.org/ns#DerivativeWorks"/>
      </cc:License>
    </rdf:RDF>
  </metadata>
</svg>